<svg width="238" height="30" viewBox="0 0 238 30" fill="none" xmlns="http://www.w3.org/2000/svg">
<g filter="url(#filter0_d_53_1081)">
<path d="M11.4574 3.048V21H5.00141C4.83341 21 4.23341 20.952 4.23341 20.256C4.23341 19.92 4.44941 19.704 4.76141 19.608C5.60141 19.344 5.57741 19.2 5.57741 18.312V5.736C5.57741 4.848 5.60141 4.704 4.76141 4.44C4.44941 4.344 4.23341 4.128 4.23341 3.792C4.23341 3.096 4.83341 3.048 5.00141 3.048H11.4574ZM12.5374 4.44V3.048H13.2814C14.7934 3.048 16.3294 3.072 17.7214 3.744C19.2094 4.488 20.0734 5.736 20.0734 7.44C20.0734 10.08 17.8654 11.304 15.5374 11.664V11.712C18.2014 12.144 20.3134 13.32 20.3134 16.32C20.3134 18.024 19.5694 19.368 18.0574 20.208C16.5214 21.072 15.0094 21 13.3054 21H12.5374V19.608C14.1454 19.536 14.3374 18.624 14.3374 17.76V14.664C14.3374 13.56 14.0734 12.528 12.5374 12.408V11.016C14.2894 10.872 14.3374 9.84 14.3374 8.952V6.552C14.3374 5.544 13.9774 4.584 12.5374 4.44ZM28.4568 2.688V4.08C27.3288 4.488 27.2328 5.208 27.2328 5.808V18.24C27.2328 18.84 27.3288 19.56 28.4568 19.968V21.36C23.3688 20.904 20.9928 16.8 20.9928 12.024C20.9928 7.248 23.3688 3.144 28.4568 2.688ZM29.5368 21.36V19.968C30.6648 19.56 30.7608 18.84 30.7608 18.24V5.808C30.7608 5.208 30.6648 4.488 29.5368 4.08V2.688C34.6248 3.144 37.0008 7.248 37.0008 12.024C37.0008 16.8 34.6248 20.904 29.5368 21.36ZM50.6873 15.84V6.84C50.3033 3.84 48.7673 4.776 48.7673 3.744C48.7673 3 49.7513 3.048 50.0153 3.048H52.7513C53.0153 3.048 53.9993 3 53.9993 3.744C53.9993 4.776 52.4633 3.84 52.0793 6.84V15.888C51.8873 19.848 49.0313 21.288 47.4713 21.312V19.896C49.6793 19.224 50.5433 17.976 50.6873 15.84ZM46.3913 19.944V21.36C44.4953 21.36 43.0313 21.336 41.3753 20.424C39.2153 19.224 38.9273 18.312 38.9273 17.112V5.736C38.9273 4.848 38.9513 4.704 38.1113 4.44C37.7993 4.344 37.5833 4.128 37.5833 3.792C37.5833 3.096 38.3753 3.048 38.4713 3.048H45.2633C45.3593 3.048 46.1513 3.096 46.1513 3.792C46.1513 4.128 45.9353 4.344 45.6233 4.44C44.7833 4.704 44.8073 4.848 44.8073 5.736V17.28C44.8073 17.52 44.5913 19.416 46.3913 19.944ZM56.5217 17.208V7.56H56.5697L57.9137 9.96V17.208C58.2977 20.208 59.8337 19.272 59.8337 20.304C59.8337 21.048 58.8497 21 58.5857 21H55.8497C55.5857 21 54.6017 21.048 54.6017 20.304C54.6017 19.272 56.1377 20.208 56.5217 17.208ZM67.6337 10.8V7.392C67.6337 3.96 65.6657 4.872 65.6657 3.768C65.6657 3.096 66.4577 3.048 66.6977 3.048H69.9617C70.2017 3.048 70.9937 3.096 70.9937 3.768C70.9937 4.872 69.0257 3.96 69.0257 7.392V13.224H68.9777L67.6337 10.8ZM62.0417 3.048L69.0257 15.192V21H65.4497L56.6657 5.856C56.2817 5.184 56.1617 4.824 55.3697 4.56C54.9617 4.416 54.6497 4.32 54.6497 3.792C54.6497 3.072 55.3697 3.072 55.8737 3.048H62.0417ZM75.896 18.312V3.048H81.776V18.312C81.776 19.2 81.752 19.344 82.592 19.608C82.904 19.704 83.12 19.92 83.12 20.256C83.12 20.952 82.328 21 82.232 21H75.44C75.344 21 74.552 20.952 74.552 20.256C74.552 19.92 74.768 19.704 75.08 19.608C75.92 19.344 75.896 19.2 75.896 18.312ZM86.312 3.048V8.64C86.312 8.736 86.24 9.336 85.52 9.336C84.848 9.336 84.728 8.712 84.656 8.184C84.44 6.912 84.104 5.328 82.856 4.44V3.048H86.312ZM71.36 8.64V3.048H74.816V4.44C73.568 5.328 73.232 6.912 73.016 8.184C72.944 8.712 72.824 9.336 72.152 9.336C71.432 9.336 71.36 8.736 71.36 8.64ZM96.7465 11.448L95.9785 9.744L97.2265 6.96C97.4185 6.552 97.5865 6.168 97.5865 5.688C97.5865 4.248 95.9545 4.776 95.9545 3.792C95.9545 2.928 96.9385 3.048 97.5145 3.048H100.179C100.731 3.048 101.403 3.096 101.403 3.816C101.403 4.224 101.139 4.392 100.803 4.536C99.8185 4.944 99.5545 5.304 99.0985 6.288L96.7465 11.448ZM90.3625 18.312V14.04L86.7385 5.448C86.5705 5.016 86.4505 4.704 86.0425 4.44C85.7305 4.272 85.4905 4.152 85.4905 3.744C85.4905 3 86.2585 3.048 86.7625 3.048H92.6905C93.2185 3.048 94.0105 3 94.0105 3.768C94.0105 4.128 93.7465 4.32 93.4825 4.488C93.2185 4.632 93.0265 4.728 93.0265 5.064C93.0265 5.376 93.1465 5.688 93.2665 5.976L96.2425 12.768V18.312C96.2425 19.2 96.2185 19.344 97.0585 19.608C97.3705 19.704 97.5865 19.92 97.5865 20.256C97.5865 20.952 96.7945 21 96.6985 21H89.9065C89.8105 21 89.0185 20.952 89.0185 20.256C89.0185 19.92 89.2345 19.704 89.5465 19.608C90.3865 19.344 90.3625 19.2 90.3625 18.312ZM117.9 14.64L116.316 21H113.46L109.188 5.376C109.068 4.92 109.02 4.752 108.588 4.56C108.228 4.392 108.012 4.272 108.012 3.84C108.012 3.048 108.996 3.048 109.548 3.048H115.116C115.644 3.048 116.484 2.976 116.484 3.744C116.484 4.56 115.404 4.344 115.404 5.232C115.404 5.448 115.452 5.592 115.524 5.832L117.9 14.64ZM119.148 3.048H121.86L125.004 15.024L123.492 21H120.636L117.516 9.432L119.148 3.048ZM125.484 12.96L124.812 10.368L125.724 6.624C125.796 6.288 125.892 6 125.892 5.64C125.892 4.392 124.38 4.584 124.38 3.696C124.38 3.144 124.884 3.048 125.316 3.048H128.412C128.868 3.048 129.396 3.096 129.396 3.72C129.396 4.08 129.204 4.176 128.892 4.32C127.692 4.848 127.38 5.688 127.068 6.888L125.532 12.984L125.484 12.96ZM152.767 18.312V5.736C152.767 4.848 152.791 4.704 151.951 4.44C151.639 4.344 151.423 4.128 151.423 3.792C151.423 3.096 152.215 3.048 152.311 3.048H158.647V18.312C158.647 19.2 158.623 19.344 159.463 19.608C159.775 19.704 159.991 19.92 159.991 20.256C159.991 20.952 159.199 21 159.103 21H152.311C152.215 21 151.423 20.952 151.423 20.256C151.423 19.92 151.639 19.704 151.951 19.608C152.791 19.344 152.767 19.2 152.767 18.312ZM159.727 4.464V3.048H159.847C161.407 3.048 163.039 3 164.479 3.696C166.087 4.488 166.903 5.808 166.927 7.632C166.975 10.392 165.151 11.592 162.703 12.168V12.216C164.839 12.528 166.879 13.152 166.927 15.696V17.808C166.927 18.024 166.855 18.504 167.167 18.504C167.551 18.504 167.623 17.808 168.199 17.808C168.511 17.808 168.895 18.168 168.895 18.504C168.895 19.2 168.103 20.088 167.575 20.496C166.759 21.168 165.895 21.36 164.863 21.36C163.831 21.36 162.895 21.096 162.151 20.352C161.311 19.488 161.191 18.432 161.191 17.304V15.672C161.191 14.568 161.167 13.224 159.727 13.08V11.664C161.023 11.544 161.191 10.752 161.191 9.576V6.672C161.191 5.472 160.927 4.896 159.727 4.464ZM181.795 8.256L185.659 18.384C185.875 18.912 185.947 19.32 186.499 19.584C186.859 19.752 187.075 19.896 187.075 20.352C187.075 21.048 186.283 21 185.803 21H179.779C179.227 21 178.507 21 178.507 20.256C178.507 19.464 179.491 19.608 179.491 19.08C179.491 18.888 179.371 18.528 179.299 18.36L177.811 13.896C177.667 13.44 177.499 12.936 177.499 12.432C177.499 11.928 177.763 11.616 178.051 11.208L180.835 7.248C181.171 6.792 181.459 6.312 181.459 5.736C181.459 5.088 181.123 4.752 180.547 4.512C180.163 4.344 179.803 4.248 179.803 3.768C179.803 3.024 180.475 3.048 180.979 3.048H185.083C185.659 3.048 186.355 3.072 186.355 3.84C186.355 4.392 185.899 4.56 185.467 4.728C183.811 5.352 183.259 6.264 182.251 7.632L181.795 8.256ZM176.611 5.736V18.312C176.611 19.2 176.587 19.344 177.427 19.608C177.739 19.704 177.955 19.92 177.955 20.256C177.955 20.952 177.163 21 177.067 21H170.275C170.179 21 169.387 20.952 169.387 20.256C169.387 19.92 169.603 19.704 169.915 19.608C170.755 19.344 170.731 19.2 170.731 18.312V5.736C170.731 4.848 170.755 4.704 169.915 4.44C169.603 4.344 169.387 4.128 169.387 3.792C169.387 3.096 170.179 3.048 170.275 3.048H177.067C177.163 3.048 177.955 3.096 177.955 3.792C177.955 4.128 177.739 4.344 177.427 4.44C176.587 4.704 176.611 4.848 176.611 5.736ZM187.689 3.792C187.689 3.096 188.481 3.048 188.577 3.048H194.913V21H188.577C188.481 21 187.689 20.952 187.689 20.256C187.689 19.92 187.905 19.704 188.217 19.608C189.057 19.344 189.033 19.2 189.033 18.312V5.736C189.033 4.848 189.057 4.704 188.217 4.44C187.905 4.344 187.689 4.128 187.689 3.792ZM195.993 4.44V3.048H201.345V7.92C201.345 8.04 201.321 8.496 200.601 8.496C200.193 8.496 200.073 8.256 199.953 7.896C199.329 5.952 198.105 4.776 195.993 4.44ZM195.993 21V19.608C197.937 19.368 199.425 18.048 200.073 16.128C200.241 15.768 200.385 15.384 200.817 15.384C201.585 15.384 201.513 16.104 201.513 16.2V21H195.993ZM195.993 12.552V11.064C197.001 10.8 197.457 9.864 197.673 8.952C197.793 8.544 197.937 8.16 198.441 8.16C199.185 8.16 199.065 9.024 199.065 9.216V14.4C199.065 14.592 199.185 15.456 198.441 15.456C197.937 15.456 197.793 15.072 197.673 14.664C197.457 13.752 197.001 12.816 195.993 12.552ZM204.142 18.312V5.736C204.142 4.848 204.166 4.704 203.326 4.44C203.014 4.344 202.798 4.128 202.798 3.792C202.798 3.096 203.59 3.048 203.686 3.048H210.022V18.312C210.022 19.2 209.998 19.344 210.838 19.608C211.15 19.704 211.366 19.92 211.366 20.256C211.366 20.952 210.574 21 210.478 21H203.686C203.59 21 202.798 20.952 202.798 20.256C202.798 19.92 203.014 19.704 203.326 19.608C204.166 19.344 204.142 19.2 204.142 18.312ZM211.102 4.464V3.048H211.222C212.782 3.048 214.414 3 215.854 3.696C217.462 4.488 218.278 5.808 218.302 7.632C218.35 10.392 216.526 11.592 214.078 12.168V12.216C216.214 12.528 218.254 13.152 218.302 15.696V17.808C218.302 18.024 218.23 18.504 218.542 18.504C218.926 18.504 218.998 17.808 219.574 17.808C219.886 17.808 220.27 18.168 220.27 18.504C220.27 19.2 219.478 20.088 218.95 20.496C218.134 21.168 217.27 21.36 216.238 21.36C215.206 21.36 214.27 21.096 213.526 20.352C212.686 19.488 212.566 18.432 212.566 17.304V15.672C212.566 14.568 212.542 13.224 211.102 13.08V11.664C212.398 11.544 212.566 10.752 212.566 9.576V6.672C212.566 5.472 212.302 4.896 211.102 4.464ZM226.57 2.688V4.08C225.658 4.392 224.866 5.064 224.866 6.048C224.866 7.224 225.514 7.944 228.37 9.048C232.618 10.68 233.578 12.936 233.578 15.144C233.578 18.864 230.482 21.288 226.93 21.36V19.968C228.082 19.608 229.066 19.08 229.114 17.76C229.162 16.248 227.386 15.624 226.234 15.12C223.21 13.848 220.402 12.48 220.402 8.712C220.402 5.064 223.042 2.808 226.57 2.688ZM232.93 3.768V7.872C232.93 8.424 232.834 9.024 232.138 9.024C231.562 9.024 231.346 8.568 231.274 8.088C231.01 6.312 229.522 4.488 227.65 4.08V2.688C229.162 2.712 230.77 3.624 231.034 3.624C231.658 3.624 231.61 2.76 232.234 2.76C232.978 2.76 232.93 3.576 232.93 3.768ZM220.402 20.256V15.624C220.402 15.12 220.498 14.448 221.17 14.448C221.65 14.448 221.986 14.832 222.058 15.24C222.394 17.16 223.738 19.536 225.85 19.968V21.36C223.762 21.312 223.306 20.472 222.442 20.472C221.674 20.472 221.746 21.264 221.146 21.264C220.402 21.264 220.402 20.376 220.402 20.256Z" fill="white"/>
</g>
<g clip-path="url(#clip0_53_1081)">
<path d="M134.5 2.83325H145.5V4.66659H134.5V2.83325ZM132.667 6.49992V4.66659H134.5V6.49992H132.667ZM132.667 17.4999V6.49992H130.833V17.4999H132.667ZM134.5 19.3333V17.4999H132.667V19.3333H134.5ZM145.5 19.3333V21.1666H134.5V19.3333H145.5ZM147.333 17.4999V19.3333H145.5V17.4999H147.333ZM147.333 6.49992H149.167V17.4999H147.333V6.49992ZM147.333 6.49992V4.66659H145.5V6.49992H147.333ZM139.083 5.58325H140.917V7.41658H143.667V9.24992H138.167V11.0833H143.667V16.5833H140.917V18.4166H139.083V16.5833H136.333V14.7499H141.833V12.9166H136.333V7.41658H139.083V5.58325Z" fill="#FB6B18"/>
<path d="M134 2.0002H146V4.0002H134V2.0002ZM132 6.0002V4.0002H134V6.0002H132ZM132 18.0002V6.0002H130V18.0002H132ZM134 20.0002V18.0002H132V20.0002H134ZM146 20.0002V22.0002H134V20.0002H146ZM148 18.0002V20.0002H146V18.0002H148ZM148 6.0002H150V18.0002H148V6.0002ZM148 6.0002V4.0002H146V6.0002H148Z" fill="#FB6B18"/>
<path d="M146 4.0002H134V6.0002H132V18.0002H134V20.0002H146V18.0002H148V6.0002H146V4.0002Z" fill="#FB6B18"/>
<path d="M141 1.09106H139V7.0002H136V13.0002H142V15.0002H134.546V17.0002H139V22.3638H141V17.0002H144V11.0002H138V9.0002H146V7.0002H141V1.09106Z" fill="#080808"/>
</g>
<defs>
<filter id="filter0_d_53_1081" x="0.233398" y="0.687988" width="237.345" height="26.6721" filterUnits="userSpaceOnUse" color-interpolation-filters="sRGB">
<feFlood flood-opacity="0" result="BackgroundImageFix"/>
<feColorMatrix in="SourceAlpha" type="matrix" values="0 0 0 0 0 0 0 0 0 0 0 0 0 0 0 0 0 0 127 0" result="hardAlpha"/>
<feOffset dy="2"/>
<feGaussianBlur stdDeviation="2"/>
<feComposite in2="hardAlpha" operator="out"/>
<feColorMatrix type="matrix" values="0 0 0 0 0 0 0 0 0 0 0 0 0 0 0 0 0 0 0.05 0"/>
<feBlend mode="normal" in2="BackgroundImageFix" result="effect1_dropShadow_53_1081"/>
<feBlend mode="normal" in="SourceGraphic" in2="effect1_dropShadow_53_1081" result="shape"/>
</filter>
<clipPath id="clip0_53_1081">
<rect width="22" height="22" fill="white" transform="translate(129 1)"/>
</clipPath>
</defs>
</svg>
